<?xml version="1.0" standalone="no"?><!DOCTYPE svg PUBLIC "-//W3C//DTD SVG 1.1//EN" "http://www.w3.org/Graphics/SVG/1.1/DTD/svg11.dtd"><svg t="1616384356695" class="icon" viewBox="0 0 1024 1024" version="1.1" xmlns="http://www.w3.org/2000/svg" p-id="10887" xmlns:xlink="http://www.w3.org/1999/xlink" width="40" height="40"><defs><style type="text/css"></style></defs><path d="M832 853.333333h-640a21.333333 21.333333 0 0 1 0-42.666666h640a21.333333 21.333333 0 0 1 0 42.666666" p-id="10888"></path><path d="M649.130667 640H192a21.333333 21.333333 0 0 1 0-42.666667h457.130667a21.333333 21.333333 0 0 1 0 42.666667" p-id="10889"></path><path d="M470.101333 426.666667H192a21.333333 21.333333 0 0 1 0-42.666667h278.101333a21.333333 21.333333 0 0 1 0 42.666667" p-id="10890"></path><path d="M279.637333 213.333333H192a21.333333 21.333333 0 0 1 0-42.666666h87.637333a21.333333 21.333333 0 0 1 0 42.666666" p-id="10891"></path></svg>