<?xml version="1.0" standalone="no"?><!DOCTYPE svg PUBLIC "-//W3C//DTD SVG 1.1//EN" "http://www.w3.org/Graphics/SVG/1.1/DTD/svg11.dtd"><svg t="1616384354236" class="icon" viewBox="0 0 1024 1024" version="1.1" xmlns="http://www.w3.org/2000/svg" p-id="10739" xmlns:xlink="http://www.w3.org/1999/xlink" width="40" height="40"><defs><style type="text/css"></style></defs><path d="M192 809.472a21.333333 21.333333 0 0 1-19.029333-30.976l183.552-363.52a21.333333 21.333333 0 1 1 38.101333 19.285333l-183.594667 363.52a21.333333 21.333333 0 0 1-19.029333 11.690667" p-id="10740"></path><path d="M551.68 794.453333a21.248 21.248 0 0 1-18.986667-11.690666l-176.128-348.501334a21.333333 21.333333 0 1 1 38.058667-19.285333l176.128 348.501333a21.333333 21.333333 0 0 1-19.029333 31.018667" p-id="10741"></path><path d="M551.68 794.453333a21.290667 21.290667 0 0 1-18.176-32.426666l269.781333-442.154667a21.333333 21.333333 0 1 1 36.437334 22.186667L569.941333 784.213333a21.290667 21.290667 0 0 1-18.218666 10.24" p-id="10742"></path><path d="M641.706667 394.752a21.290667 21.290667 0 0 1-6.144-41.813333l179.626666-53.376a21.290667 21.290667 0 1 1 12.16 40.874666L647.765333 393.813333a21.76 21.76 0 0 1-6.101333 0.853334" p-id="10743"></path><path d="M874.666667 520.917333a21.290667 21.290667 0 0 1-20.437334-15.232L800.853333 326.101333a21.333333 21.333333 0 0 1 40.96-12.202666l53.333334 179.626666a21.333333 21.333333 0 0 1-20.437334 27.392" p-id="10744"></path></svg>