<?xml version="1.0" standalone="no"?><!DOCTYPE svg PUBLIC "-//W3C//DTD SVG 1.1//EN" "http://www.w3.org/Graphics/SVG/1.1/DTD/svg11.dtd"><svg t="1616401876822" class="icon" viewBox="0 0 1024 1024" version="1.1" xmlns="http://www.w3.org/2000/svg" p-id="833" xmlns:xlink="http://www.w3.org/1999/xlink" width="40" height="40"><defs><style type="text/css"></style></defs><path d="M511.33 927.22c-30.22 0-66.57-16.17-111.13-49.44-33.71-25.17-71.86-60.13-113.39-103.9-65.46-69-119.18-138.89-126.71-148.77-12.31-11.33-19.34-27.11-19.34-43.56V219.36c0-27.19 19.22-51.2 46.74-58.38 73.02-19.17 250.78-63.76 323.83-63.76 69.89 0 232.89 39.88 323.84 63.65 27.54 7.33 46.73 31.38 46.73 58.49v362.19c0 16.32-7.02 32.09-19.31 43.53-7.42 9.75-61.2 79.73-126.74 148.81-41.53 43.77-79.68 78.73-113.39 103.9-44.55 33.26-80.9 49.43-111.13 49.43z m0-800c-71.51 0-260.13 48.06-316.24 62.79-14.33 3.74-24.33 15.81-24.33 29.35v362.19c0 8.32 3.75 16.35 10.28 22.05l1.18 1.03 0.94 1.25c0.56 0.74 56.44 74.68 125.59 147.55 40.33 42.49 77.16 76.27 109.49 100.39 38.05 28.4 70.24 43.41 93.09 43.41 22.85 0 55.04-15.01 93.09-43.41 32.32-24.12 69.16-57.9 109.49-100.39 69.15-72.87 125.03-146.81 125.59-147.55l0.91-1.21 1.13-1c6.68-5.9 10.35-13.75 10.35-22.11v-362.2c0-13.53-10.03-25.66-24.38-29.48-72.02-18.83-247.16-62.66-316.18-62.66z" p-id="834"></path><path d="M450.8 594.73c-3.98 0-7.79-1.58-10.61-4.39l-90.35-90.35c-5.86-5.86-5.86-15.36 0-21.21 5.86-5.86 15.36-5.86 21.21 0l79.74 79.74 200.93-201.04c5.86-5.86 15.35-5.86 21.21-0.01 5.86 5.86 5.86 15.35 0.01 21.21L461.41 590.33c-2.81 2.82-6.63 4.4-10.61 4.4z" p-id="835"></path></svg>