<?xml version="1.0" standalone="no"?><!DOCTYPE svg PUBLIC "-//W3C//DTD SVG 1.1//EN" "http://www.w3.org/Graphics/SVG/1.1/DTD/svg11.dtd"><svg t="1616401811834" class="icon" viewBox="0 0 1024 1024" version="1.1" xmlns="http://www.w3.org/2000/svg" p-id="3477" xmlns:xlink="http://www.w3.org/1999/xlink" width="40" height="40"><defs><style type="text/css"></style></defs><path d="M835.918367 114.938776H167.183673A114.938776 114.938776 0 0 0 52.244898 229.877551v437.122612l0.083592 4.618449A114.938776 114.938776 0 0 0 167.183673 781.938939l38.932898-0.020898V919.510204l0.125388 2.737633c2.068898 25.182041 32.391837 37.99249 51.931429 20.793469l183.107918-161.123265H835.918367a114.938776 114.938776 0 0 0 114.938776-114.938776V229.877551A114.938776 114.938776 0 0 0 835.918367 114.938776z m-668.734694 62.693877h668.734694a52.244898 52.244898 0 0 1 52.244898 52.244898v437.122612a52.244898 52.244898 0 0 1-52.244898 52.244898H429.453061l-3.239183 0.167184a31.346939 31.346939 0 0 0-17.449796 7.648653l-139.953633 123.08898v-99.557878a31.346939 31.346939 0 0 0-31.346939-31.346939H167.183673a52.244898 52.244898 0 0 1-52.244897-52.244898V229.877551A52.244898 52.244898 0 0 1 167.183673 177.632653z" fill="#666666" p-id="3478"></path><path d="M700.081633 313.469388a31.346939 31.346939 0 0 1 3.009306 62.547592L700.081633 376.163265h-376.163266a31.346939 31.346939 0 0 1-3.009306-62.547592L323.918367 313.469388h376.163266zM585.142857 522.44898a31.346939 31.346939 0 0 1 3.009306 62.547591L585.142857 585.142857H334.367347a31.346939 31.346939 0 0 1-3.009306-62.547592L334.367347 522.44898h250.77551z" fill="#666666" p-id="3479"></path></svg>