<?xml version="1.0" standalone="no"?><!DOCTYPE svg PUBLIC "-//W3C//DTD SVG 1.1//EN" "http://www.w3.org/Graphics/SVG/1.1/DTD/svg11.dtd"><svg t="1616401742487" class="icon" viewBox="0 0 1024 1024" version="1.1" xmlns="http://www.w3.org/2000/svg" p-id="819" xmlns:xlink="http://www.w3.org/1999/xlink" width="40" height="40"><defs><style type="text/css"></style></defs><path d="M512 935.497143h-65.828571L438.857143 914.285714a92.891429 92.891429 0 0 0-130.194286-49.005714L292.571429 877.714286l-14.628572-10.24a424.228571 424.228571 0 0 1-95.085714-89.234286l-11.702857-16.091429 10.24-16.822857a98.011429 98.011429 0 0 0 13.165714-46.811428 90.697143 90.697143 0 0 0-73.142857-89.234286l-19.748572-4.388571v-20.48a416.182857 416.182857 0 0 1-4.388571-60.708572V453.485714l20.48-4.388571a90.697143 90.697143 0 0 0 73.142857-89.234286 92.891429 92.891429 0 0 0-16.091428-51.931428l-11.702858-16.822858 12.434286-16.822857a412.525714 412.525714 0 0 1 95.817143-92.16l16.822857-11.702857 16.822857 11.702857a92.891429 92.891429 0 0 0 50.468572 15.36 92.16 92.16 0 0 0 88.502857-73.142857l5.12-19.017143h19.748571A419.84 419.84 0 0 1 585.142857 109.714286h19.017143l5.12 18.285714a93.622857 93.622857 0 0 0 128.731429 56.32l16.822857-8.777143 14.628571 11.702857a395.702857 395.702857 0 0 1 79.725714 80.457143l13.165715 16.822857-12.434286 16.822857a92.16 92.16 0 0 0-15.36 51.931429 89.965714 89.965714 0 0 0 73.142857 89.234286l20.48 4.388571v20.48a385.462857 385.462857 0 0 1 0 49.737143 433.737143 433.737143 0 0 1-4.388571 61.44v19.748571l-19.748572 4.388572a90.697143 90.697143 0 0 0-73.142857 89.234286 87.04 87.04 0 0 0 13.165714 46.811428l10.24 16.822857-12.434285 16.091429a390.582857 390.582857 0 0 1-73.142857 73.142857l-14.628572 11.702857-16.091428-8.777143a93.622857 93.622857 0 0 0-129.462858 56.32l-5.12 18.285715H585.142857a444.708571 444.708571 0 0 1-73.142857 13.165714zM488.594286 877.714286a343.771429 343.771429 0 0 0 67.291428 0 155.794286 155.794286 0 0 1 188.708572-81.92 348.16 348.16 0 0 0 40.228571-40.228572 156.525714 156.525714 0 0 1-11.702857-57.782857 146.285714 146.285714 0 0 1 96.548571-140.434286 270.628571 270.628571 0 0 0 0-34.377142v-23.405715a146.285714 146.285714 0 0 1-97.28-140.434285 155.062857 155.062857 0 0 1 14.628572-65.828572 400.822857 400.822857 0 0 0-43.154286-43.154286A155.062857 155.062857 0 0 1 555.885714 165.302857a438.857143 438.857143 0 0 0-62.171428 0A146.285714 146.285714 0 0 1 355.474286 256 146.285714 146.285714 0 0 1 292.571429 241.371429a324.754286 324.754286 0 0 0-51.2 49.005714 146.285714 146.285714 0 0 1 15.36 65.828571 146.285714 146.285714 0 0 1-99.474286 140.434286v23.405714a271.36 271.36 0 0 0 0 34.377143A146.285714 146.285714 0 0 1 255.268571 694.857143a146.285714 146.285714 0 0 1-12.434285 57.782857 348.891429 348.891429 0 0 0 56.32 52.662857 166.765714 166.765714 0 0 1 56.32-10.24A150.674286 150.674286 0 0 1 488.594286 877.714286z" p-id="820"></path><path d="M523.702857 702.902857a169.691429 169.691429 0 1 1 169.691429-169.691428 169.691429 169.691429 0 0 1-169.691429 169.691428z m0-280.868571a111.177143 111.177143 0 1 0 111.177143 111.177143 111.177143 111.177143 0 0 0-111.177143-111.177143z" p-id="821"></path></svg>