<?xml version="1.0" standalone="no"?><!DOCTYPE svg PUBLIC "-//W3C//DTD SVG 1.1//EN" "http://www.w3.org/Graphics/SVG/1.1/DTD/svg11.dtd"><svg t="1616401775371" class="icon" viewBox="0 0 1024 1024" version="1.1" xmlns="http://www.w3.org/2000/svg" p-id="2706" xmlns:xlink="http://www.w3.org/1999/xlink" width="40" height="40"><defs><style type="text/css"></style></defs><path d="M902.250667 178.197333l4.8 4.8c99.818667 102.549333 99.818667 265.941333 0 368.512L509.44 960l-2.88-2.944-0.106667 0.106667L116.949333 557.013333c-99.818667-102.549333-99.818667-265.962667 0-368.512 96.405333-99.050667 254.848-101.184 353.877334-4.778666l4.8 4.778666 33.685333 34.624 39.061333-40.106666c96.405333-99.050667 254.848-101.205333 353.877334-4.8z m-44.629334 45.866667a186.261333 186.261333 0 0 0-259.029333-0.768l-4.373333 4.352-84.906667 87.210667-81.322667-83.541334-1.792-1.770666a186.24 186.24 0 0 0-263.381333 3.562666 200.170667 200.170667 0 0 0-4.266667 274.709334l4.266667 4.544L505.088 864l0.106667-0.064 4.202666 4.309333 351.786667-361.386666a200.170667 200.170667 0 0 0 4.266667-274.709334l-4.266667-4.544-3.562667-3.562666z" fill="#666666" p-id="2707"></path></svg>