<?xml version="1.0" standalone="no"?><!DOCTYPE svg PUBLIC "-//W3C//DTD SVG 1.1//EN" "http://www.w3.org/Graphics/SVG/1.1/DTD/svg11.dtd"><svg t="1616401802741" class="icon" viewBox="0 0 1024 1024" version="1.1" xmlns="http://www.w3.org/2000/svg" p-id="3167" xmlns:xlink="http://www.w3.org/1999/xlink" width="40" height="40"><defs><style type="text/css"></style></defs><path d="M522.039216 50.196078c-199.599686 0-361.411765 161.812078-361.411765 361.411765s161.812078 361.411765 361.411765 361.411765 361.411765-161.812078 361.411764-361.411765-161.812078-361.411765-361.411764-361.411765z m0 55.617255c168.899765 0 305.79451 136.894745 305.794509 305.79451S690.959059 717.402353 522.039216 717.402353 216.244706 580.527686 216.244706 411.607843 353.119373 105.813333 522.039216 105.813333z" fill="#666666" p-id="3168"></path><path d="M522.039216 732.862745a30.117647 30.117647 0 0 1 29.977098 27.226353L552.156863 762.980392v220.862745a30.117647 30.117647 0 0 1-60.094745 2.891294L491.921569 983.843137V762.980392a30.117647 30.117647 0 0 1 30.117647-30.117647z" fill="#666666" p-id="3169"></path><path d="M692.705882 843.294118a30.117647 30.117647 0 0 1 2.891294 60.094745L692.705882 903.529412H351.372549a30.117647 30.117647 0 0 1-2.891294-60.094745L351.372549 843.294118h341.333333z" fill="#666666" p-id="3170"></path></svg>