<?xml version="1.0" standalone="no"?><!DOCTYPE svg PUBLIC "-//W3C//DTD SVG 1.1//EN" "http://www.w3.org/Graphics/SVG/1.1/DTD/svg11.dtd"><svg t="1616401787967" class="icon" viewBox="0 0 1024 1024" version="1.1" xmlns="http://www.w3.org/2000/svg" p-id="2859" xmlns:xlink="http://www.w3.org/1999/xlink" width="40" height="40"><defs><style type="text/css"></style></defs><path d="M211.550041 213.409959a31.346939 31.346939 0 0 1 44.345469 44.34547c-134.666449 134.645551-134.666449 352.966531 0 487.632979 134.645551 134.666449 352.966531 134.666449 487.63298 0 134.666449-134.666449 134.666449-352.966531 0-487.632979a31.346939 31.346939 0 0 1 44.345469-44.34547c159.137959 159.158857 159.137959 417.165061 0 576.303021-159.158857 159.158857-417.165061 159.158857-576.323918 0-159.137959-159.137959-159.137959-417.144163 0-576.303021z" fill="#666666" p-id="2860"></path><path d="M512 73.142857a31.346939 31.346939 0 0 1 31.200653 28.337633L543.346939 104.489796v417.959184a31.346939 31.346939 0 0 1-62.547592 3.009306L480.653061 522.44898V104.489796a31.346939 31.346939 0 0 1 31.346939-31.346939z" fill="#666666" p-id="2861"></path></svg>