<?xml version="1.0" standalone="no"?><!DOCTYPE svg PUBLIC "-//W3C//DTD SVG 1.1//EN" "http://www.w3.org/Graphics/SVG/1.1/DTD/svg11.dtd"><svg t="1616401765474" class="icon" viewBox="0 0 1024 1024" version="1.1" xmlns="http://www.w3.org/2000/svg" p-id="2396" xmlns:xlink="http://www.w3.org/1999/xlink" width="40" height="40"><defs><style type="text/css"></style></defs><path d="M774.144 234.349714c32.036571 54.06302 50.008816 116.736 51.659755 182.230204l0.125388 9.863837-0.020898 242.520816 93.204898 80.540735c21.232327 18.348408 9.404082 52.662857-17.658776 54.961633L898.612245 804.571429H229.877551a31.346939 31.346939 0 0 1-3.009306-62.547592L229.877551 741.877551h584.536816l-40.333061-34.857796a31.681306 31.681306 0 0 1-8.066612-10.783347 31.137959 31.137959 0 0 1-2.633143-9.905632l-0.146286-3.009307V426.443755c0-57.824653-15.130122-113.057959-43.049796-160.141061a31.346939 31.346939 0 0 1 53.958531-31.973878zM503.306449 73.142857c48.734041 0 96.005224 11.870041 139.034122 34.398041a31.346939 31.346939 0 0 1-29.069061 55.525878A236.000653 236.000653 0 0 0 503.285551 135.836735c-140.789551 0-256.585143 125.763918-259.866122 283.710694l-0.083592 6.896326v120.267755a31.346939 31.346939 0 0 1-62.547592 3.030204l-0.146286-3.030204v-120.267755C180.641959 231.967347 324.357224 73.142857 503.306449 73.142857z" fill="#666666" p-id="2397"></path><path d="M386.612245 752.326531c0 75.88049 52.453878 135.836735 114.938775 135.836734 61.063837 0 112.556408-57.260408 114.855184-130.695836L616.489796 752.326531h62.693877c0 108.773878-78.534531 198.530612-177.632653 198.530612-97.342694 0-174.811429-86.580245-177.549061-192.72098L323.918367 752.326531h62.693878zM730.174694 103.235918a31.346939 31.346939 0 0 1 46.477061 41.942204l-2.15249 2.382368-647.836734 647.836734a31.346939 31.346939 0 0 1-46.49796-41.963102l2.15249-2.382367 647.836735-647.836735z" fill="#666666" p-id="2398"></path></svg>