<?xml version="1.0" standalone="no"?><!DOCTYPE svg PUBLIC "-//W3C//DTD SVG 1.1//EN" "http://www.w3.org/Graphics/SVG/1.1/DTD/svg11.dtd"><svg t="1616401816870" class="icon" viewBox="0 0 1045 1024" version="1.1" xmlns="http://www.w3.org/2000/svg" p-id="3627" xmlns:xlink="http://www.w3.org/1999/xlink" width="40.8203125" height="40"><defs><style type="text/css"></style></defs><path d="M512 53.333333C258.688 53.333333 53.333333 258.688 53.333333 512S258.688 970.666667 512 970.666667 970.666667 765.312 970.666667 512 765.312 53.333333 512 53.333333z m0 64c217.962667 0 394.666667 176.704 394.666667 394.666667S729.962667 906.666667 512 906.666667 117.333333 729.962667 117.333333 512 294.037333 117.333333 512 117.333333z" fill="#666666" p-id="3628"></path><path d="M686.229333 476.437333l-199.125333-149.333333a53.333333 53.333333 0 0 0-85.333333 42.666667v298.666666a53.333333 53.333333 0 0 0 85.333333 42.666667l199.125333-149.333333a53.333333 53.333333 0 0 0 8.277334-7.722667l2.389333-2.944a53.333333 53.333333 0 0 0-10.666667-74.666667z m-49.770666 42.666667l-170.666667 128v-256l170.666667 128z" fill="#666666" p-id="3629"></path></svg>