<?xml version="1.0" standalone="no"?><!DOCTYPE svg PUBLIC "-//W3C//DTD SVG 1.1//EN" "http://www.w3.org/Graphics/SVG/1.1/DTD/svg11.dtd"><svg t="1616401770117" class="icon" viewBox="0 0 1024 1024" version="1.1" xmlns="http://www.w3.org/2000/svg" p-id="2550" xmlns:xlink="http://www.w3.org/1999/xlink" width="40" height="40"><defs><style type="text/css"></style></defs><path d="M516.778667 164.672c150.826667 0 293.013333 54.976 402.325333 152.490667 19.2 17.109333 37.226667 35.434667 54.016 54.848a32 32 0 0 1-48.426667 41.856 530.602667 530.602667 0 0 0-48.213333-48.938667c-97.642667-87.125333-224.682667-136.256-359.68-136.256-133.610667 0-259.456 48.106667-356.757333 133.610667a530.773333 530.773333 0 0 0-50.538667 50.858666 32 32 0 1 1-48.341333-41.941333 594.773333 594.773333 0 0 1 56.64-56.981333c108.906667-95.701333 249.728-149.546667 398.976-149.546667z" fill="#666666" p-id="2551"></path><path d="M516.010667 380.565333c105.898667 0 205.653333 39.317333 281.749333 108.842667a413.013333 413.013333 0 0 1 38.314667 40.021333 32 32 0 1 1-49.109334 41.045334 349.013333 349.013333 0 0 0-32.362666-33.813334c-64.405333-58.837333-148.8-92.096-238.592-92.096-88.106667 0-171.050667 32.021333-235.029334 88.896a349.248 349.248 0 0 0-33.898666 34.624 32 32 0 1 1-48.725334-41.493333c12.373333-14.549333 25.792-28.245333 40.106667-40.96a416.512 416.512 0 0 1 277.546667-105.066667z" fill="#666666" p-id="2552"></path><path d="M517.397333 576.832c60.586667 0 117.504 23.530667 159.616 64.661333 8.234667 8.064 15.850667 16.725333 22.72 25.92a32 32 0 0 1-51.2 38.378667 160.042667 160.042667 0 0 0-16.256-18.517333 163.776 163.776 0 0 0-114.88-46.442667c-43.989333 0-85.077333 17.066667-115.349333 46.890667a159.957333 159.957333 0 0 0-16.234667 18.666666 32 32 0 0 1-51.413333-38.122666c6.890667-9.28 14.506667-18.005333 22.741333-26.154667a227.754667 227.754667 0 0 1 160.256-65.28z" fill="#666666" p-id="2553"></path><path d="M517.12 847.338667m-53.333333 0a53.333333 53.333333 0 1 0 106.666666 0 53.333333 53.333333 0 1 0-106.666666 0Z" fill="#666666" p-id="2554"></path></svg>